PathFileType	4	(X/Y/Z)	 s11c0203.trc
DataRate	CameraRate	NumFrames	NumMarkers	Units	OrigDataRate	OrigDataStartFrame	OrigNumFrames
200	200	6	48	mm	200	501	2000
Frame#	Time	racr			lacr			c7			jug			rlel			rdr			llel			ldr			s2			lic			ric			lasi			rasi			rpsi			lpsi			rgt			lgt			rth1			rth2			rth3			rth4			rlfc			rmfc			rsh1			rsh2			rsh3			rsh4			rlmal			rcal			rtoe			rmt5			lth1			lth2			lth4			lth3			llfc			lmfc			llmal			lcal			lmt5			lsh1			lsh2			lsh3			lsh4			ltoe			SBIKE			LBIKE			RBIKE			
		X1	Y1	Z1	X2	Y2	Z2	X3	Y3	Z3	X4	Y4	Z4	X5	Y5	Z5	X6	Y6	Z6	X7	Y7	Z7	X8	Y8	Z8	X9	Y9	Z9	X10	Y10	Z10	X11	Y11	Z11	X12	Y12	Z12	X13	Y13	Z13	X14	Y14	Z14	X15	Y15	Z15	X16	Y16	Z16	X17	Y17	Z17	X18	Y18	Z18	X19	Y19	Z19	X20	Y20	Z20	X21	Y21	Z21	X22	Y22	Z22	X23	Y23	Z23	X24	Y24	Z24	X25	Y25	Z25	X26	Y26	Z26	X27	Y27	Z27	X28	Y28	Z28	X29	Y29	Z29	X30	Y30	Z30	X31	Y31	Z31	X32	Y32	Z32	X33	Y33	Z33	X34	Y34	Z34	X35	Y35	Z35	X36	Y36	Z36	X37	Y37	Z37	X38	Y38	Z38	X39	Y39	Z39	X40	Y40	Z40	X41	Y41	Z41	X42	Y42	Z42	X43	Y43	Z43	X44	Y44	Z44	X45	Y45	Z45	X46	Y46	Z46	X47	Y47	Z47	X48	Y48	Z48	
501	2.5050	442.207196	1347.743758	4.043405	519.744255	1340.520471	-259.168307	420.191758	1436.991342	-146.738516	422.949664	1255.362335	-150.191696	508.442003	1087.668953	80.645051	754.486696	971.301475	-43.968952	587.498238	1158.411875	-496.625714	799.789623	955.751373	-407.183028	-133.849589	1189.871812	-287.078806	103.014275	1221.557897	-459.209788	42.614134	1231.041788	-51.373616	139.193469	1156.554787	-433.186555	93.806855	1173.308822	-91.681026	-106.716660	1278.804847	-233.589402	-91.317371	1268.948735	-325.738760	36.793490	1102.741040	-43.626859	16.030670	1069.324141	-471.692523	173.907930	1051.396385	-43.883625	262.519416	1041.918529	-52.355910	333.325870	990.428595	-62.020742	274.259329	1074.810283	-65.316627	432.461916	938.124546	-77.239264	434.317941	911.106546	-205.083430	385.901049	782.359855	-61.636589	373.916275	695.907102	-79.057033	323.309265	625.391991	-76.109544	396.234994	690.340493	-110.956890	260.682941	502.810223	-86.689461	193.685319	477.137055	-132.450850	481.279363	470.287847	-129.278317	414.625648	436.291297	-59.333530	122.526463	964.505168	-478.484193	192.640806	916.951376	-467.004312	220.298581	940.086585	-459.392760	231.520957	836.260749	-457.811015	304.869570	724.280562	-426.238049	310.014226	722.412090	-297.385621	67.205659	370.072445	-406.544042	0.687602	356.285582	-373.539237	154.342663	215.336602	-440.037631	241.211419	618.048027	-447.030728	215.447004	538.666948	-428.855126	152.505920	476.607594	-427.850696	240.257594	527.205283	-401.711271	246.993432	183.625120	-375.520596	-205.868348	949.917870	-262.945787	1.115323	82.323569	-460.842624	-15.500754	80.971195	-62.401579	
502	2.5100	442.718450	1345.210309	4.862829	520.924765	1336.921926	-258.524915	421.970427	1434.462016	-146.083137	422.916985	1252.779567	-149.309949	507.103421	1085.255921	82.313188	753.418135	971.415119	-43.382592	586.188501	1156.783407	-497.358536	799.657830	955.812793	-407.216199	-133.493746	1191.795300	-286.662894	103.422370	1222.306118	-459.381177	43.775662	1231.859232	-51.623590	139.002397	1156.923958	-433.693843	94.475227	1173.449352	-92.336812	-105.622295	1280.619968	-233.402631	-90.487381	1270.715838	-325.671110	37.061143	1103.381305	-44.092587	15.182574	1070.510986	-472.172974	173.383119	1050.406148	-43.919327	261.804549	1039.473417	-52.467881	331.900535	987.110589	-62.079971	274.039586	1072.134676	-65.554523	430.124376	932.820032	-77.011301	432.537182	905.986443	-204.827038	384.977890	777.022216	-61.100648	373.944326	690.464656	-78.450181	324.269914	619.307649	-75.152908	396.259727	685.072058	-110.413205	263.228344	495.630308	-85.974188	196.400637	469.194434	-131.509190	484.168386	466.124388	-129.241042	418.172423	431.203382	-59.152517	121.808016	965.382637	-478.601200	192.261255	918.295577	-467.338897	219.640247	941.558316	-459.366555	231.523793	837.954195	-458.432920	305.819467	726.355135	-426.229167	310.661516	724.167922	-297.685248	63.666537	375.296099	-406.395402	-3.147315	361.710350	-373.501788	150.277818	220.686510	-440.286984	241.087414	620.642510	-447.082525	214.396718	541.661717	-428.819109	150.760193	480.245528	-427.710507	238.923635	530.131671	-401.595325	242.923220	188.787673	-375.585082	-205.846884	949.927146	-262.979431	1.100961	82.333816	-460.819285	-15.516758	80.984224	-62.421626	
503	2.5150	443.371953	1342.886674	5.686630	522.178944	1333.399469	-258.162528	423.823100	1431.930922	-145.470759	423.041462	1250.209900	-148.277550	505.817534	1082.979405	83.929629	752.285506	971.555659	-42.669244	584.720455	1155.106935	-498.315677	799.517107	955.870673	-407.190985	-133.030438	1193.607604	-286.325032	103.742364	1222.868467	-459.334612	45.143215	1232.387607	-51.838406	138.847981	1157.231553	-434.102818	95.093419	1173.439785	-92.550528	-104.495416	1282.209712	-233.074557	-89.615242	1272.438714	-325.455631	37.296895	1103.906542	-44.511756	14.340796	1071.819911	-472.857164	172.785487	1048.888372	-43.982234	261.029560	1036.843389	-52.513777	330.308771	983.367093	-62.148053	273.671501	1069.291428	-65.725606	427.708272	928.107450	-77.169399	430.588021	900.791433	-204.282660	383.773860	771.621210	-60.810170	373.787520	684.837744	-77.926666	325.055129	613.080922	-74.395016	396.229954	679.736100	-109.969811	265.614022	488.360136	-85.342789	199.019134	461.146247	-130.760361	486.861389	461.839101	-129.234202	421.558265	425.846982	-59.043501	121.267909	966.337786	-478.717710	191.997747	919.794446	-467.307081	219.168511	943.148502	-459.141911	231.815652	839.703315	-458.624142	306.980623	728.615888	-426.322644	311.242914	726.301402	-297.912992	60.349137	380.687100	-406.157527	-6.713687	367.275878	-373.443465	146.430345	226.080154	-440.400400	241.159482	623.350133	-447.061529	213.561666	544.757205	-428.482203	149.283384	483.998472	-427.455032	237.811723	533.062325	-401.085713	239.094517	194.089468	-375.720331	-205.797118	949.933186	-263.000846	1.099470	82.312692	-460.837085	-15.505133	80.976011	-62.413098	
504	2.5200	444.049866	1340.576483	6.421069	523.579238	1330.019183	-257.959525	425.711539	1429.451450	-144.903726	423.282887	1247.709237	-147.371849	504.621886	1080.729705	85.606038	751.156925	971.739885	-41.934809	583.082094	1153.495708	-499.571797	799.306751	956.037128	-407.184268	-131.663913	1195.071444	-286.273791	104.123921	1223.759309	-459.409917	46.537684	1232.837434	-51.851931	138.780833	1157.639968	-434.605491	95.711576	1173.171889	-92.688518	-103.366633	1283.591796	-232.790099	-88.777651	1274.143622	-325.202044	37.559925	1104.157608	-44.822217	13.636669	1073.160460	-473.330688	171.967886	1047.357243	-44.072469	260.105507	1033.902255	-52.558009	328.545522	979.253164	-62.220929	273.285227	1066.089372	-65.658827	425.234070	923.346532	-77.483367	428.307237	895.489892	-203.881913	382.370788	765.967169	-60.408052	373.244100	679.209813	-77.374500	325.626277	606.679330	-73.902937	395.254556	674.376448	-109.561230	267.856416	481.060280	-84.869563	201.688634	452.822251	-130.425298	489.363922	457.451837	-129.245976	424.706237	420.476032	-58.867138	120.828423	967.485483	-478.771274	191.985600	921.442427	-467.277782	218.956373	945.085742	-458.970786	232.438221	841.612488	-458.679874	308.380316	731.045074	-426.392369	311.972236	728.794307	-298.100786	57.337277	386.253591	-405.863751	-9.989969	373.116184	-373.375956	142.859279	231.631089	-440.660521	241.429412	626.264860	-447.094108	213.024910	547.971280	-428.282613	148.063180	487.894812	-427.253084	236.912148	536.122836	-400.618705	235.467658	199.441095	-375.836909	-205.755433	949.944909	-263.038559	1.113540	82.332116	-460.833444	-15.527292	80.989886	-62.422521	
505	2.5250	444.946987	1338.354134	7.152616	524.984193	1326.713338	-257.900796	427.607938	1427.077051	-144.403259	423.636026	1245.326788	-146.523515	503.514696	1078.783808	87.253516	749.951370	971.886417	-41.147990	581.322580	1151.800218	-500.872155	799.085082	956.381063	-407.184040	-131.902296	1197.116231	-285.784770	104.464037	1224.448991	-459.323495	47.935352	1233.155978	-51.877535	138.651786	1158.034105	-434.925284	96.397416	1172.832813	-92.607973	-102.618568	1285.130086	-232.025870	-88.366894	1275.849000	-324.472478	37.793092	1104.271916	-45.042132	12.979423	1074.496020	-473.819199	171.177580	1045.542582	-44.093968	259.056488	1030.528178	-52.554565	326.587748	974.923928	-62.305917	272.845219	1062.560123	-65.515074	422.396813	918.314855	-77.604274	425.632638	891.164934	-205.680520	380.717373	760.177083	-60.157020	372.720263	673.293035	-76.992596	325.985214	600.120639	-73.710010	395.441673	668.469982	-109.002839	269.930716	473.529915	-84.464232	204.877072	444.445691	-130.226591	491.774991	452.548469	-129.165278	427.548551	414.895362	-58.657198	120.639644	968.891982	-478.814806	192.204183	923.420102	-467.352563	218.970828	947.281635	-458.921467	233.354376	843.889036	-458.737296	310.021576	733.622806	-426.477349	312.991173	731.539909	-298.263159	54.641201	392.041160	-405.658672	-12.875506	379.205196	-373.324337	139.498549	237.303778	-440.737286	241.945529	629.221582	-447.078172	212.609760	551.290566	-428.042261	147.026521	491.950932	-426.956989	236.350286	539.434220	-400.254288	232.051715	204.898968	-375.884869	-205.709549	949.966618	-263.047519	1.100203	82.297298	-460.837004	-15.519230	80.995518	-62.416522	
506	2.5300	445.818894	1336.268548	7.515394	526.409471	1323.647185	-258.013385	429.565525	1424.545934	-143.694860	424.108392	1242.800200	-145.525140	502.482444	1076.916311	88.783711	748.808885	972.046292	-40.217623	579.485827	1150.152292	-502.349079	798.785938	956.722993	-407.136614	-130.653838	1198.580829	-285.590129	104.898982	1225.017876	-459.126317	49.334698	1233.310453	-51.798191	138.570649	1158.426327	-435.166817	97.067968	1172.478220	-92.419696	-101.467206	1286.505437	-231.661471	-87.525566	1277.608599	-324.199997	37.983381	1104.211994	-45.212302	12.513134	1075.812452	-474.325639	170.247781	1043.456523	-44.082730	257.864363	1027.026218	-52.536546	324.416139	970.281581	-62.354948	272.280030	1058.788174	-65.307318	419.551043	912.742814	-77.545797	422.844915	885.965555	-205.435448	378.876906	754.067788	-59.765878	372.148793	667.256417	-75.938448	326.153416	593.504158	-73.694305	394.881787	662.668119	-108.712048	271.854400	465.978383	-84.135406	206.827787	436.358892	-129.748326	493.907511	447.766217	-129.107978	430.309752	409.097377	-58.612197	120.743468	970.465255	-478.884491	192.732002	925.647817	-467.514004	219.267492	949.671739	-458.955816	234.656341	846.409415	-458.934874	311.846947	736.317343	-426.613793	314.402338	734.424437	-298.466245	52.304731	398.046319	-405.428924	-15.480879	385.575468	-373.334846	136.467932	243.099047	-440.814891	242.707423	632.392246	-447.179260	212.479455	555.000915	-427.983393	146.234426	496.329292	-426.789397	235.994073	542.913433	-399.992195	228.844556	210.340897	-375.893114	-205.691688	949.976241	-263.061632	1.094438	82.310187	-460.832504	-15.530140	80.991986	-62.414500	
